<?xml version="1.0" encoding="utf-8"?>
<!-- Generator: Adobe Illustrator 27.5.0, SVG Export Plug-In . SVG Version: 6.00 Build 0)  -->
<svg version="1.1" xmlns="http://www.w3.org/2000/svg" xmlns:xlink="http://www.w3.org/1999/xlink" x="0px" y="0px"
	 viewBox="0 0 500 500" style="enable-background:new 0 0 500 500;" xml:space="preserve">
<g id="Background_Complete">
	<g>
		<rect y="382.398" style="fill:#EBEBEB;" width="500" height="0.25"/>
		<rect x="416.779" y="398.494" style="fill:#EBEBEB;" width="33.122" height="0.25"/>
		<rect x="322.527" y="401.208" style="fill:#EBEBEB;" width="8.693" height="0.25"/>
		<rect x="396.586" y="389.208" style="fill:#EBEBEB;" width="19.192" height="0.25"/>
		<rect x="52.459" y="390.888" style="fill:#EBEBEB;" width="43.193" height="0.25"/>
		<rect x="104.556" y="390.888" style="fill:#EBEBEB;" width="6.333" height="0.25"/>
		<rect x="131.471" y="395.111" style="fill:#EBEBEB;" width="93.676" height="0.25"/>
		<path style="fill:#EBEBEB;" d="M237.014,337.8H43.915c-3.147,0-5.708-2.561-5.708-5.708V60.66c0-3.147,2.561-5.708,5.708-5.708
			h193.099c3.146,0,5.707,2.561,5.707,5.708v271.432C242.721,335.239,240.16,337.8,237.014,337.8z M43.915,55.203
			c-3.01,0-5.458,2.448-5.458,5.458v271.432c0,3.01,2.448,5.458,5.458,5.458h193.099c3.009,0,5.457-2.448,5.457-5.458V60.66
			c0-3.009-2.448-5.458-5.457-5.458H43.915z"/>
		<path style="fill:#EBEBEB;" d="M453.31,337.8H260.212c-3.147,0-5.707-2.561-5.707-5.708V60.66c0-3.147,2.561-5.708,5.707-5.708
			H453.31c3.148,0,5.708,2.561,5.708,5.708v271.432C459.019,335.239,456.458,337.8,453.31,337.8z M260.212,55.203
			c-3.009,0-5.457,2.448-5.457,5.458v271.432c0,3.01,2.448,5.458,5.457,5.458H453.31c3.01,0,5.458-2.448,5.458-5.458V60.66
			c0-3.009-2.448-5.458-5.458-5.458H260.212z"/>
	</g>
	<g>
		<g>
			<polygon style="fill:#F0F0F0;" points="442.273,382.456 442.273,333.142 419.513,333.142 419.513,287.409 416.304,287.409 
				416.304,313.622 407.55,313.622 407.55,306.372 391.793,306.372 391.793,281.274 388.875,281.274 388.875,250.599 
				386.541,250.599 386.541,280.716 380.997,280.716 380.997,325.334 370.492,325.334 370.492,280.716 351.525,280.716 
				351.525,318.449 331.613,318.449 331.613,272.716 328.404,272.716 328.404,298.929 319.65,298.929 319.65,291.678 
				303.893,291.678 303.893,266.581 300.975,266.581 300.975,235.906 298.641,235.906 298.641,266.023 293.097,266.023 
				293.097,310.641 282.592,310.641 282.592,266.023 263.625,266.023 263.625,309.182 250.835,309.182 250.835,284.084 
				247.917,284.084 247.917,253.409 245.583,253.409 245.583,283.526 240.039,283.526 240.039,328.144 229.534,328.144 
				229.534,283.526 210.568,283.526 210.568,328.144 201.23,328.144 201.23,333.142 184.872,333.142 184.872,287.409 
				181.663,287.409 181.663,313.622 172.909,313.622 172.909,306.372 157.152,306.372 157.152,281.274 154.234,281.274 
				154.234,250.599 151.899,250.599 151.899,280.716 146.811,280.716 146.811,278.205 127.845,278.205 127.845,280.716 
				117.34,280.716 117.34,278.205 111.796,278.205 111.796,248.088 109.462,248.088 109.462,278.763 106.544,278.763 
				106.544,303.86 90.787,303.86 90.787,311.111 82.033,311.111 82.033,284.898 78.823,284.898 78.823,330.631 56.063,330.631 
				56.063,382.456 			"/>
			
				<ellipse transform="matrix(0.7071 -0.7071 0.7071 0.7071 -49.5165 135.0975)" style="fill:#FAFAFA;" cx="138.319" cy="127.32" rx="27.787" ry="27.787"/>
			<path style="fill:#F5F5F5;" d="M123.904,127.007c0-2.668-2.163-4.83-4.83-4.83c-0.482,0-0.947,0.073-1.387,0.204
				c0.07-0.484,0.108-0.979,0.108-1.483c0-5.649-4.58-10.229-10.229-10.229c-0.644,0-1.273,0.063-1.884,0.176
				c-1.572-2.573-4.398-4.296-7.634-4.296c-4.898,0-8.871,3.935-8.944,8.816c-0.05-0.001-0.099-0.007-0.149-0.007
				c-4.551,0-8.24,3.689-8.24,8.24c0,4.551,3.689,8.24,8.24,8.24h30.261l-0.006-0.007
				C121.814,131.758,123.904,129.629,123.904,127.007z"/>
			<path style="fill:#F5F5F5;" d="M428.193,193.933c0-2.668-2.163-4.83-4.83-4.83c-0.482,0-0.947,0.073-1.387,0.204
				c0.07-0.485,0.108-0.979,0.108-1.483c0-5.649-4.58-10.229-10.229-10.229c-0.644,0-1.273,0.062-1.884,0.176
				c-1.572-2.573-4.398-4.296-7.634-4.296c-4.898,0-8.871,3.935-8.944,8.816c-0.05-0.001-0.099-0.008-0.149-0.008
				c-4.551,0-8.24,3.689-8.24,8.24c0,4.551,3.689,8.24,8.24,8.24h30.26l-0.006-0.007
				C426.103,198.684,428.193,196.555,428.193,193.933z"/>
			<path style="fill:#F5F5F5;" d="M285.126,120.574c0-4.221,3.422-7.643,7.643-7.643c0.763,0,1.499,0.115,2.195,0.324
				c-0.111-0.767-0.171-1.549-0.171-2.347c0-8.938,7.246-16.184,16.184-16.184c1.019,0,2.015,0.099,2.981,0.279
				c2.487-4.071,6.959-6.798,12.079-6.798c7.749,0,14.035,6.227,14.151,13.949c0.079-0.001,0.156-0.012,0.236-0.012
				c7.2,0,13.037,5.837,13.037,13.037c0,7.2-5.837,13.038-13.037,13.038h-47.879l0.01-0.011
				C288.434,128.091,285.126,124.723,285.126,120.574z"/>
			<path style="fill:#F5F5F5;" d="M143.894,203.795c0-5.079,4.118-9.197,9.197-9.197c0.918,0,1.804,0.139,2.641,0.389
				c-0.134-0.922-0.206-1.864-0.206-2.824c0-10.757,8.72-19.477,19.477-19.477c1.226,0,2.424,0.119,3.588,0.336
				c2.994-4.899,8.375-8.18,14.536-8.18c9.326,0,16.891,7.493,17.029,16.786c0.095-0.002,0.188-0.014,0.283-0.014
				c8.665,0,15.689,7.024,15.689,15.689c0,8.665-7.024,15.689-15.689,15.689l-57.618,0l0.012-0.013
				C147.874,212.841,143.894,208.787,143.894,203.795z"/>
			<path style="fill:#F5F5F5;" d="M184.513,141.479c0-1.659-1.345-3.003-3.003-3.003c-0.3,0-0.589,0.045-0.862,0.127
				c0.044-0.301,0.067-0.609,0.067-0.922c0-3.512-2.847-6.359-6.359-6.359c-0.4,0-0.792,0.039-1.172,0.11
				c-0.977-1.6-2.734-2.671-4.746-2.671c-3.045,0-5.515,2.447-5.56,5.481c-0.031-0.001-0.061-0.005-0.093-0.005
				c-2.829,0-5.123,2.294-5.123,5.123c0,2.829,2.294,5.123,5.123,5.123h18.813l-0.004-0.004
				C183.214,144.432,184.513,143.109,184.513,141.479z"/>
			<path style="fill:#F5F5F5;" d="M75.137,232.677c0-1.658,1.345-3.003,3.003-3.003c0.3,0,0.589,0.045,0.862,0.127
				c-0.044-0.301-0.067-0.609-0.067-0.922c0-3.512,2.847-6.359,6.359-6.359c0.4,0,0.792,0.039,1.171,0.109
				c0.978-1.6,2.735-2.671,4.746-2.671c3.045,0,5.515,2.447,5.56,5.481c0.031-0.001,0.061-0.005,0.093-0.005
				c2.829,0,5.123,2.294,5.123,5.123c0,2.829-2.294,5.123-5.123,5.123H78.051l0.004-0.004
				C76.436,235.631,75.137,234.307,75.137,232.677z"/>
			<path style="fill:#F5F5F5;" d="M356.626,242.477c0-1.659,1.345-3.003,3.003-3.003c0.3,0,0.589,0.045,0.862,0.127
				c-0.044-0.301-0.067-0.609-0.067-0.922c0-3.512,2.847-6.359,6.359-6.359c0.4,0,0.792,0.039,1.172,0.109
				c0.977-1.6,2.734-2.671,4.746-2.671c3.045,0,5.515,2.447,5.56,5.481c0.031-0.001,0.061-0.005,0.093-0.005
				c2.829,0,5.123,2.294,5.123,5.123c0,2.829-2.293,5.123-5.123,5.123l-18.813,0l0.004-0.004
				C357.926,245.43,356.626,244.107,356.626,242.477z"/>
		</g>
		<polygon style="fill:#E0E0E0;" points="413.649,366.2 408.427,328.937 403.228,339.717 353.271,265.618 270.516,239.182 
			242.639,178.824 115.867,91.523 116.209,118.044 95.807,130.325 208.235,196.053 241.355,256.837 338.333,287.796 
			388.534,351.835 377.719,355.028 		"/>
	</g>
</g>
<g id="Background_Simple" style="display:none;">
	<g style="display:inline;">
		<path style="fill:#407BFF;" d="M249.508,101.935c-69.491,31.265-6.408,86.989-46.532,117.337
			c-40.124,30.348-149.216-4.736-107.629,74.07c48.85,92.569,262.769,79.715,308.893-33.827
			C450.363,145.973,318.999,70.67,249.508,101.935z"/>
		<path style="opacity:0.9;fill:#FFFFFF;" d="M249.508,101.935c-69.491,31.265-6.408,86.989-46.532,117.337
			c-40.124,30.348-149.216-4.736-107.629,74.07c48.85,92.569,262.769,79.715,308.893-33.827
			C450.363,145.973,318.999,70.67,249.508,101.935z"/>
	</g>
</g>
<g id="Shadow_1_">
	<ellipse id="_x3C_Path_x3E__359_" style="fill:#F5F5F5;" cx="250" cy="416.238" rx="193.889" ry="11.323"/>
</g>
<g id="Plant">
	<g>
		<path style="fill:#407BFF;" d="M373.547,392.301c0,0,4.75-10.364-0.677-20.581c-5.427-10.217-7.001-12.624-3.541-14.717
			s5.047,8.173,5.047,8.173s2.916-7.063,0.508-14.454c-2.408-7.392-3.918-19.431-0.629-20.722
			c3.289-1.291,0.628,15.019,3.481,20.578c0,0,2.397-6.189,2.791-12.126c0.394-5.937-0.222-15.417,2.375-17.849
			c2.597-2.432,4.261-0.749,1.708,12.353c-2.552,13.102-2.533,23.752-2.533,23.752s5.637-17.187,9.42-17.688
			c3.783-0.501,3.778,5.064,0.54,9.892c-3.238,4.827-9.483,13.476-10.507,17.926c0,0,6.187-12.934,11.753-8.97
			c5.566,3.964-4.844,11.776-9.484,14.599c-4.64,2.823-7.862,20.518-7.862,20.518L373.547,392.301z"/>
		<path style="opacity:0.2;enable-background:new    ;" d="M373.547,392.301c0,0,4.75-10.364-0.677-20.581
			c-5.427-10.217-7.001-12.624-3.541-14.717s5.047,8.173,5.047,8.173s2.916-7.063,0.508-14.454
			c-2.408-7.392-3.918-19.431-0.629-20.722c3.289-1.291,0.628,15.019,3.481,20.578c0,0,2.397-6.189,2.791-12.126
			c0.394-5.937-0.222-15.417,2.375-17.849c2.597-2.432,4.261-0.749,1.708,12.353c-2.552,13.102-2.533,23.752-2.533,23.752
			s5.637-17.187,9.42-17.688c3.783-0.501,3.778,5.064,0.54,9.892c-3.238,4.827-9.483,13.476-10.507,17.926
			c0,0,6.187-12.934,11.753-8.97c5.566,3.964-4.844,11.776-9.484,14.599c-4.64,2.823-7.862,20.518-7.862,20.518L373.547,392.301z"/>
		<path style="fill:#407BFF;" d="M377.297,396.551c0,0-4.625-10.434,0.924-20.569c5.549-10.135,7.151-12.518,3.717-14.663
			c-3.434-2.145-5.145,8.097-5.145,8.097s-2.831-7.106-0.335-14.461c2.497-7.355,4.151-19.371,0.878-20.711
			c-3.273-1.34-0.808,15.008-3.728,20.525c0,0-2.322-6.224-2.645-12.167c-0.323-5.942,0.406-15.412-2.161-17.883
			c-2.568-2.47-4.251-0.813-1.857,12.326s2.248,23.788,2.248,23.788s-5.43-17.269-9.207-17.827
			c-3.777-0.558-3.839,5.008-0.659,9.883c3.18,4.875,9.321,13.616,10.292,18.081c0,0-6.031-13.025-11.644-9.144
			c-5.613,3.881,4.703,11.847,9.308,14.739c4.606,2.892,7.615,20.633,7.615,20.633L377.297,396.551z"/>
		<g>
			<polygon style="fill:#263238;" points="355.964,389.113 394.174,389.113 391.082,416.457 359.056,416.457 			"/>
		</g>
	</g>
</g>
<g id="Character">
	<g>
		<g>
			<g>
				<path style="fill:#EBC0BB;" d="M308.401,197.071l9.736,8.199c1.615,1.369,3.26,2.689,4.88,3.998
					c1.619,1.316,3.277,2.547,4.852,3.666c0.388,0.262,0.801,0.569,1.151,0.769l0.544,0.338l0.136,0.086
					c0.055,0.034,0.012,0.01,0.022,0.02c-0.007,0.008-0.01,0.012-0.012,0.017c-0.052,0.048,0.185,0.169,0.727,0.126
					c1.093-0.095,2.814-0.821,4.421-1.758c3.269-1.909,6.626-4.591,9.727-7.25l0.113-0.097c1.072-0.919,2.687-0.795,3.606,0.277
					c0.755,0.881,0.804,2.129,0.205,3.056c-2.518,3.885-5.316,7.361-9.066,10.5c-1.915,1.526-3.993,3.051-7.131,3.923
					c-1.556,0.411-3.566,0.604-5.663-0.085c-0.258-0.082-0.513-0.176-0.763-0.286l-0.344-0.152l-0.219-0.109l-0.875-0.441
					c-0.61-0.297-1.092-0.597-1.625-0.897c-2.068-1.2-3.933-2.474-5.759-3.762c-1.836-1.28-3.59-2.626-5.338-3.967
					c-3.482-2.716-6.817-5.494-10.11-8.46c-2.107-1.898-2.277-5.144-0.379-7.251c1.857-2.062,5.007-2.269,7.115-0.497
					L308.401,197.071z"/>
			</g>
			<path style="fill:#407BFF;" d="M307.696,212.204c1.211,0.442,3.397,1.651,5.779,3.057c4.765,2.824,10.308,6.458,10.308,6.458
				l4.539-9.686c-8.693-8.92-21.729-15.944-21.729-15.944s-0.512,2.958-0.748,6.353C305.55,206.619,305.677,211.463,307.696,212.204
				z"/>
			<polygon style="fill:#407BFF;" points="323.131,221.563 328.324,210.334 330.921,214.062 325.598,223.376 			"/>
			<polygon style="opacity:0.6;fill:#FFFFFF;enable-background:new    ;" points="323.131,221.563 328.324,210.334 330.921,214.062 
				325.598,223.376 			"/>
			<path style="opacity:0.2;" d="M307.696,210.05c1.211,0.383,3.397,1.43,5.779,2.648c-1.595-7.253-6.931-11.599-6.931-11.599
				c-0.246,0.149-0.482,0.319-0.699,0.494C305.55,205.211,305.677,209.408,307.696,210.05z"/>
		</g>
		<path style="fill:#EEC1BB;" d="M281.981,249.222c0,0,0.475,8.12,4.443,22.342c1.998,7.16,4.88,15.871,9.042,25.864
			c1.979,4.763,4.249,9.808,6.849,15.124c1.174,2.416,2.425,4.88,3.745,7.402c1.523,43.074,25.689,86.866,25.689,86.866
			c1.339,0.689,6.015-0.068,5.986-1.426c-3.58-5.685-10.623-60.876-15.163-87.05c-0.281-3.56-0.689-7.373-1.193-11.312
			c-1.329-10.565-3.289-22.061-5.2-32.17c-2.998-15.92-5.859-28.406-5.859-28.406l-7.965,0.776L281.981,249.222z"/>
		<path style="fill:#EEC1BB;" d="M272.483,308.846h0.009c0.64,4.628,1.465,9.575,2.483,14.862
			c-8.634,28.813,9.119,85.032,9.119,85.032c3.008,0.592,5.666,0.204,7.014-0.805c-3.347-16.939-0.941-60.983,1.659-87.302
			c0.233-2.387,0.524-5.016,0.844-7.819c0.534-4.744,1.174-9.983,1.853-15.386c1.145-9.051,2.435-18.578,3.599-27.018
			c1.416-10.206,2.658-18.84,3.289-23.176c0.272-1.911,0.427-2.988,0.427-2.988l-24.933,2.697c0,0-6.335,7.111-7.295,29.308
			C270.194,284.748,270.611,295.468,272.483,308.846z"/>
		<path style="opacity:0.2;" d="M272.483,308.846h0.009c7.848,2.571,14.901,3.725,21.12,3.968c0.534-4.744,1.174-9.983,1.853-15.386
			c1.979,4.763,4.249,9.808,6.849,15.124c8.566-0.854,14.969-3.366,19.063-5.52c-1.329-10.565-3.289-22.061-5.2-32.17
			c-2.328-1.397-5.122-2.571-8.469-3.415c-2.619-0.66-5.54-0.999-8.644-1.038c-4.007-0.058-8.314,0.359-12.641,1.155
			c-5.452,1.009-10.934,2.629-15.872,4.686C270.194,284.748,270.611,295.468,272.483,308.846z"/>
		<path style="fill:#407BFF;" d="M272.336,196.827c0,0,1.116,4.123,2.319,11.04c0.301,1.708,0.611,3.59,0.902,5.617
			c0.213,1.465,0.417,3.007,0.611,4.618c0.223,1.824,0.437,3.754,0.621,5.753c0.65,6.869,1.038,14.688,0.834,23.031h32.829
			c0,0,5.181-38.398-3.376-50.777C307.077,196.109,290.245,188.183,272.336,196.827z"/>
		<path style="opacity:0.2;" d="M274.655,207.867c0.301,1.708,0.611,3.59,0.902,5.617c0.213,1.465,0.417,3.007,0.611,4.618
			c1.077-3.619,1.708-9.197-0.097-15.027L274.655,207.867z"/>
		<path style="fill:#407BFF;" d="M289.317,190.533c-10.296-0.007-11.592,8.47-11.592,8.47l4.814-2.072l14.147,9.461l3.477-9.551
			l4.362,0.811C304.525,197.652,298.261,190.54,289.317,190.533z"/>
		<path style="opacity:0.6;fill:#FFFFFF;enable-background:new    ;" d="M289.317,190.533c-10.296-0.007-11.592,8.47-11.592,8.47
			l4.814-2.072l14.147,9.461l3.477-9.551l4.362,0.811C304.525,197.652,298.261,190.54,289.317,190.533z"/>
		<g>
			<path style="fill:#EEC1BB;" d="M282.937,195.218l13.35,9.96c0-0.08,2.07-9.96,2.07-9.96c-3.15-0.69-4.44-2.22-4.78-4.06
				c-0.26-1.38,0.03-2.95,0.46-4.47l-7.39-5.85l-1.98-1.57C285.577,183.828,286.447,192.178,282.937,195.218z"/>
			<path style="opacity:0.2;" d="M286.587,184.208c0.28,2.87,3.8,5.86,6.99,6.95c-0.26-1.38,0.03-2.95,0.46-4.47l-7.39-5.85
				C286.487,181.698,286.457,182.938,286.587,184.208z"/>
		</g>
		<g>
			<path style="fill:none;stroke:#407BFF;stroke-width:0.75;stroke-miterlimit:10;" d="M309.247,161.405
				c0,0,0.954,0.668,1.251,1.124l-2.338,6.468"/>
			<path style="fill:#263238;" d="M306.973,176.364c0,0,6.52-13.274-6.591-21.055c-13.11-7.78-22.605,8.467-21.286,16.625
				c0.567,3.507,1.879,7.785,5.261,9.893c1.36,0.848,1.464-2.983,1.464-2.983S298.587,183.335,306.973,176.364z"/>
			<path style="fill:#EEC1BB;" d="M285.33,167.539c-1.165,8.067-1.827,11.449,1.257,16.562c4.638,7.692,14.567,7.853,18.061,0.416
				c3.146-6.694,4.523-18.762-2.434-23.934C295.361,155.489,286.495,159.472,285.33,167.539z"/>
			<path style="fill:#263238;" d="M293.719,164.289c-6.028,3.969,0.444,13.112-8.026,9.817c-8.469-3.295-0.834-14.235,5.21-15.25
				C296.947,157.841,293.719,164.289,293.719,164.289z"/>
			<path style="fill:#D4827D;" d="M302.389,175.62c0,0,0.546,3.182,1.485,4.894c-1.007,0.607-2.381-0.15-2.381-0.15L302.389,175.62z
				"/>
			<path style="fill:#263238;" d="M300.031,167.984c-0.103-0.018-0.209,0.007-0.294,0.076c-1.315,1.084-2.697,0.598-2.713,0.592
				c-0.205-0.073-0.422,0.033-0.482,0.243c-0.06,0.21,0.06,0.44,0.267,0.516c0.072,0.026,1.807,0.639,3.439-0.708
				c0.163-0.134,0.18-0.387,0.04-0.565C300.219,168.053,300.127,168.001,300.031,167.984z"/>
			<path style="fill:#263238;" d="M305.56,169.021c-0.093-0.034-0.196-0.032-0.288,0.012c-0.19,0.092-0.262,0.331-0.162,0.535
				c1.003,2.04,2.787,2.349,2.863,2.361c0.214,0.034,0.403-0.116,0.422-0.337c0.02-0.22-0.137-0.427-0.35-0.462
				c-0.07-0.011-1.451-0.272-2.248-1.894C305.745,169.131,305.658,169.056,305.56,169.021z"/>
			<path style="fill:#263238;" d="M297.271,160.839c0,0-3.676,6.21-9.185,7.693c-5.508,1.483-5.878-1.219-5.878-1.219
				s0.411-7.906,7.663-9.547c0,0,1.068-2.334,7.375-1.802c6.307,0.532,13.591,5.724,11.169,13.211c0,0-1.931-1.471-4.599-1.774
				c0,0-0.757-3.918-4.351-6.358c0,0,2.256,2.398,2.594,5.96C302.06,167.003,300.637,162.462,297.271,160.839z"/>
			<g>
				<path style="fill:#263238;" d="M298.684,173.449l1.635-0.062C300.319,173.388,299.287,174.443,298.684,173.449z"/>
				<path style="fill:#263238;" d="M298.684,173.449c0,0-1.156,1.07-2.894,0.139c0,0,1.43,1.176,2.336,1.04
					c0.921-0.138,1.28-0.933,1.28-0.933L298.684,173.449z"/>
			</g>
			<g>
				<path style="fill:#263238;" d="M305.338,174.481l1.635-0.061C306.973,174.42,305.941,175.474,305.338,174.481z"/>
				<path style="fill:#263238;" d="M305.338,174.481c0,0-0.436,1.036-2.174,0.105c0,0,0.71,1.211,1.616,1.075
					c0.921-0.138,1.28-0.933,1.28-0.933L305.338,174.481z"/>
			</g>
			<path style="fill:none;stroke:#263238;stroke-width:0.5;stroke-linecap:round;stroke-linejoin:round;stroke-miterlimit:10;" d="
				M300.166,183.362c0,0-0.406-2.229-3.625-3.642"/>
			<g>
				<path style="fill:none;stroke:#407BFF;stroke-width:0.75;stroke-miterlimit:10;" d="M293.619,157.927
					c0,0.951,1.573,1.721,3.513,1.721c1.94,0,3.513-0.771,3.513-1.721c0-0.951-1.573-1.721-3.513-1.721
					C295.192,156.206,293.619,156.977,293.619,157.927z"/>
				<path style="fill:none;stroke:#407BFF;stroke-width:0.75;stroke-miterlimit:10;" d="M303.162,157.892
					c-0.475,0.823,0.501,2.277,2.182,3.247c1.68,0.97,3.428,1.089,3.903,0.266c0.475-0.823-0.501-2.277-2.182-3.247
					C305.385,157.188,303.638,157.069,303.162,157.892z"/>
				<path style="fill:none;stroke:#407BFF;stroke-width:0.75;stroke-miterlimit:10;" d="M303.046,158.314
					c0,0-1.186-1.494-2.401-0.386"/>
				<path style="fill:none;stroke:#407BFF;stroke-width:0.75;stroke-miterlimit:10;" d="M293.619,157.927
					c0,0-1.986,0.359-2.716,0.929l-4.884,13.625"/>
			</g>
			<path style="fill:#EEC1BB;" d="M282.096,174.598c0.245,1.82,1.192,3.213,2.259,3.925c1.604,1.071,3.061-0.69,3.163-2.911
				c0.092-1.999-0.631-4.965-2.505-5.114C283.168,170.35,281.815,172.517,282.096,174.598z"/>
		</g>
		<g>
			<path style="fill:#263238;" d="M283.471,416.098l1.389-0.002l0.386-1.715l4.598,2.076h11.652c0,0,1.853-1.863-3.696-3.347
				c-0.252-0.068-0.514-0.165-0.786-0.301c-2.959-1.387-7.169-6.073-7.169-6.073h-6.393c0,0-0.223,0.32-0.524,0.922
				C282.229,409.065,281.023,412.017,283.471,416.098z"/>
			<path style="fill:#FFC2BC;" d="M282.928,407.658c0,0.01,0,0.019,0,0.019c0.844-0.941,4.686,3.192,7.499,4.598
				c2.513,1.251,5.336,1.805,6.587,0.534c-2.959-1.387-7.612-7.445-7.612-7.445h-5.141
				C284.261,405.364,283.229,407.056,282.928,407.658z"/>
		</g>
		<g>
			<path style="fill:#263238;" d="M332.009,416.098l1.389-0.002l0.386-1.715l4.598,2.076h11.651c0,0,1.853-1.863-3.696-3.347
				c-0.252-0.068-0.514-0.165-0.786-0.301c-2.959-1.387-7.169-6.073-7.169-6.073h-6.393c0,0-0.223,0.32-0.524,0.922
				C330.767,409.065,329.56,412.017,332.009,416.098z"/>
			<path style="fill:#FFC2BC;" d="M331.465,407.658c0,0.01,0,0.019,0,0.019c0.844-0.941,4.686,3.192,7.499,4.598
				c2.513,1.251,5.336,1.805,6.587,0.534c-2.959-1.387-7.612-7.445-7.612-7.445h-5.141
				C332.798,405.364,331.766,407.056,331.465,407.658z"/>
		</g>
		<path style="fill:#263238;" d="M310.769,244.249h-33.1l-0.893,4.262c0,0-12.157,16.833-5.995,58.794c0,0,26.631,3.07,51.705-2.303
			c0,0-5.629-43.112-11.514-57.185L310.769,244.249z"/>
		<g>
			<polygon style="fill:#263238;" points="287.537,247.914 276.431,247.914 277.103,244.748 287.537,244.748 			"/>
			<polygon style="fill:#263238;" points="307.71,244.748 311.036,244.748 311.324,247.914 307.71,247.914 			"/>
			<rect x="288.616" y="244.748" style="fill:#263238;" width="17.99" height="3.166"/>
			<polygon style="opacity:0.6;fill:#FFFFFF;enable-background:new    ;" points="287.537,247.914 276.431,247.914 277.103,244.748 
				287.537,244.748 			"/>
			<polygon style="opacity:0.6;fill:#FFFFFF;enable-background:new    ;" points="307.71,244.748 311.036,244.748 311.324,247.914 
				307.71,247.914 			"/>
			<rect x="288.616" y="244.748" style="opacity:0.6;fill:#FFFFFF;enable-background:new    ;" width="17.99" height="3.166"/>
			<path style="fill:#FFFFFF;" d="M296.612,248.154h4.989c0.3,0,0.544-0.243,0.544-0.544v-2.559c0-0.3-0.243-0.544-0.544-0.544
				h-4.989c-0.3,0-0.544,0.243-0.544,0.544v2.559C296.068,247.91,296.312,248.154,296.612,248.154z"/>
		</g>
		<path style="fill:#EEC1BB;" d="M354.228,199.84l0.135,2.53c0.051,0.951-0.361,1.869-1.106,2.463l-3.482,2.775
			c-1.392,1.109-3.235,1.476-4.946,0.984l-1.059-0.305c-0.511-4.181,2.016-9.076,2.016-9.076l0.566-1.475
			c0.504-1.313,1.876-1.964,3.153-1.493l2.938,1.083C353.456,197.7,354.167,198.7,354.228,199.84z"/>
		<g>
			<g>
				<path style="fill:#EBC0BB;" d="M274.733,208.318l-3.458,3.731l-3.512,3.822l-3.496,3.857l-3.47,3.893l0.521-0.833
					c0.1-0.243,0.059-0.387,0.034-0.313c-0.023,0.07-0.032,0.295,0.006,0.591c0.076,0.601,0.331,1.433,0.684,2.278
					c0.718,1.711,1.73,3.559,2.857,5.353c1.117,1.813,2.35,3.614,3.621,5.406c1.247,1.801,2.612,3.591,3.908,5.329l0.045,0.061
					c0.845,1.134,0.611,2.738-0.522,3.583c-0.945,0.705-2.219,0.657-3.106-0.034c-1.887-1.472-3.582-3.011-5.301-4.619
					c-1.69-1.621-3.316-3.325-4.875-5.155c-1.537-1.853-3.043-3.78-4.339-6.119c-0.643-1.18-1.258-2.45-1.703-4.051
					c-0.219-0.804-0.388-1.705-0.4-2.766c-0.01-1.053,0.172-2.331,0.753-3.598c0.078-0.17,0.169-0.33,0.272-0.478l0.249-0.355
					c2.081-2.973,4.262-5.878,6.57-8.683c1.145-1.411,2.336-2.784,3.554-4.141c1.251-1.352,2.431-2.666,3.844-4.016
					c2.05-1.96,5.301-1.886,7.26,0.164c1.884,1.971,1.889,5.051,0.065,7.027L274.733,208.318z"/>
			</g>
			<path style="fill:#407BFF;" d="M272.337,196.824c0,0-7.443,3.852-17.709,18.176l8.156,6.648l12.428-10.451
				c0,0,2.105-4.613,1.219-9.314C275.544,197.182,272.337,196.824,272.337,196.824z"/>
			<polygon style="fill:#407BFF;" points="263.945,221.169 253.86,213.205 252.325,217.619 261.92,223.376 			"/>
			<polygon style="opacity:0.6;fill:#FFFFFF;enable-background:new    ;" points="263.945,221.169 253.86,213.205 252.325,217.619 
				261.92,223.376 			"/>
		</g>
		<path style="fill:#EEC1BB;" d="M277.41,249.654l0.197-2.526c0.074-0.95-0.316-1.877-1.046-2.489l-3.414-2.859
			c-1.365-1.143-3.198-1.554-4.921-1.103l-1.066,0.279c-0.613,4.167,1.795,9.122,1.795,9.122l0.53,1.489
			c0.472,1.325,1.828,2.009,3.115,1.57l2.963-1.011C276.586,251.775,277.321,250.792,277.41,249.654z"/>
		<path style="fill:#263238;" d="M287.526,155.885c0,0-2.675-11.124-12.871-9.146s-3.866,18.876-5.976,25.196
			c-2.11,6.32-2.564,16.198,5.976,18.05c0,0-3.866-3.048-1.756-8.444c0,0-0.527,2.442,0.923,4.457c0,0-1.762-3.363,0.833-6.278
			c2.595-2.916,7.771-13.795,8.282-17.19C283.448,159.134,287.526,155.885,287.526,155.885z"/>
		<g>
			<path style="fill:#263238;" d="M349.915,212.051l0.974-0.172c0.699-0.124,1.166-0.791,1.042-1.49l-9.236-52.241l-3.506,0.62
				l9.236,52.241C348.549,211.708,349.216,212.175,349.915,212.051z"/>
			
				<ellipse transform="matrix(0.9847 -0.1741 0.1741 0.9847 -20.53 60.9497)" style="fill:#407BFF;" cx="337.159" cy="147.499" rx="21.095" ry="22.275"/>
			
				<ellipse transform="matrix(0.9847 -0.1741 0.1741 0.9847 -20.53 60.9497)" style="opacity:0.6;fill:#FFFFFF;enable-background:new    ;" cx="337.159" cy="147.499" rx="21.095" ry="22.275"/>
			<g>
				
					<ellipse transform="matrix(0.9847 -0.1741 0.1741 0.9847 -20.4386 61.285)" style="fill:#407BFF;" cx="339.129" cy="147.151" rx="21.095" ry="22.275"/>
				
					<ellipse transform="matrix(0.9847 -0.1741 0.1741 0.9847 -20.4386 61.285)" style="opacity:0.7;fill:#FFFFFF;" cx="339.129" cy="147.151" rx="21.095" ry="22.275"/>
			</g>
			<polygon style="fill:#407BFF;" points="329.507,158.491 337.201,147.492 326.202,139.797 327.789,137.528 338.789,145.223 
				346.483,134.223 348.752,135.811 341.058,146.81 352.057,154.504 350.469,156.773 339.47,149.079 331.776,160.078 			"/>
		</g>
	</g>
</g>
<g id="Light_bulb">
	<g>
		<path style="fill:#407BFF;" d="M176.587,302.948v10.468l-11.26-2.234l-2.725,1.676l2.725,4.945l-5.098-3.956l-5.341,0.791
			l-2.171,16.262l-5.927-4.999l-9.856,8l2.635,4.868l-5.8-6.132l-12.124,11.438v-10.277l-7.319,6.802l-2.374,19.37l14.044,18.919
			l28.483,1.024l35.604-14.079c0,0,4.352-26.703,4.352-27.297c0-0.593,0-19.978,0-19.978l-9.89-10.379L176.587,302.948z"/>
		<path style="opacity:0.3;fill:#FFFFFF;" d="M176.587,302.948v10.468l-11.26-2.234l-2.725,1.676l2.725,4.945l-5.098-3.956
			l-5.341,0.791l-2.171,16.262l-5.927-4.999l-9.856,8l2.635,4.868l-5.8-6.132l-12.124,11.438v-10.277l-7.319,6.802l-2.374,19.37
			l14.044,18.919l28.483,1.024l35.604-14.079c0,0,4.352-26.703,4.352-27.297c0-0.593,0-19.978,0-19.978l-9.89-10.379
			L176.587,302.948z"/>
		<path style="fill:#263238;" d="M235.021,411.992c6.349,2.704,15.207-3.813,19.784-14.558c4.577-10.745,3.141-21.647-3.208-24.352
			c-6.349-2.705-15.207,3.813-19.784,14.558C227.235,398.385,228.672,409.288,235.021,411.992z"/>
		<path style="fill:#263238;" d="M210.491,411.138c-1.661,0.606-3.204,0.701-4.537,0.134c-6.234-2.656-5.64-18.065,1.326-34.417
			c6.966-16.352,17.666-27.455,23.9-24.8c1.332,0.568,2.334,1.747,3.047,3.364c0.78-0.04,1.522,0.058,2.203,0.348
			c1.318,0.561,2.298,1.746,2.983,3.375c0.807-0.065,1.568,0.038,2.267,0.335c1.309,0.558,2.274,1.755,2.931,3.411
			c0.828-0.09,1.608-0.002,2.319,0.3c1.304,0.556,2.257,1.765,2.882,3.457c0.847-0.117,1.646-0.053,2.368,0.254
			c5.182,2.208,4.689,15.018-1.102,28.613c-5.791,13.595-14.687,22.825-19.87,20.618c-0.722-0.307-1.322-0.839-1.824-1.531
			c-1.654,0.721-3.185,0.872-4.489,0.316c-0.711-0.303-1.315-0.805-1.823-1.465c-1.649,0.674-3.18,0.808-4.49,0.25
			c-0.698-0.298-1.3-0.775-1.812-1.402c-1.651,0.635-3.184,0.749-4.502,0.188C211.587,412.197,211.002,411.729,210.491,411.138z"/>
		<path style="opacity:0.3;fill:#FFFFFF;" d="M210.491,411.138c-1.661,0.606-3.204,0.701-4.537,0.134
			c-6.234-2.656-5.64-18.065,1.326-34.417c6.966-16.352,17.666-27.455,23.9-24.8c1.332,0.568,2.334,1.747,3.047,3.364
			c0.78-0.04,1.522,0.058,2.203,0.348c1.318,0.561,2.298,1.746,2.983,3.375c0.807-0.065,1.568,0.038,2.267,0.335
			c1.309,0.558,2.274,1.755,2.931,3.411c0.828-0.09,1.608-0.002,2.319,0.3c1.304,0.556,2.257,1.765,2.882,3.457
			c0.847-0.117,1.646-0.053,2.368,0.254c5.182,2.208,4.689,15.018-1.102,28.613c-5.791,13.595-14.687,22.825-19.87,20.618
			c-0.722-0.307-1.322-0.839-1.824-1.531c-1.654,0.721-3.185,0.872-4.489,0.316c-0.711-0.303-1.315-0.805-1.823-1.465
			c-1.649,0.674-3.18,0.808-4.49,0.25c-0.698-0.298-1.3-0.775-1.812-1.402c-1.651,0.635-3.184,0.749-4.502,0.188
			C211.587,412.197,211.002,411.729,210.491,411.138z"/>
		<path style="fill:#407BFF;" d="M144.967,411.517c16.29,6.94,34,5.7,48.58-1.87c2.8-1.46,6.12-1.55,8.89-0.05
			c0.13,0.08,0.26,0.14,0.4,0.2c6.33,2.69,17.2-8.58,24.27-25.19c7.07-16.6,7.68-32.25,1.35-34.95c-0.14-0.06-0.29-0.11-0.43-0.15
			c-2.98-0.94-5.22-3.36-6.09-6.35c-4.83-16.49-17.03-30.67-34.52-37.31c-3.56-1.35-7.19-2.31-10.83-2.9l-3.57,1.57l10.74,8.3
			l-1.78,1.39l1.78,3.36l-3.55-2.17l-3.97,2.17l7.52,16.23l-15.08,2.56l-1.93,2.97l4.66,6.77l-6.24-5.5l-5.74,6.25l-1.58,19.78
			l-5.13-6.33l-10.1-12.46h-8.31l-1.98,7.51v-7.71l-6.73-1.54l-9.18,13.25l-1.89,2.73l1.4-6.19v-0.02l3.15-13.97l-1.46,0.38
			l-3.09,0.81l2.37-7.12l-1.47-0.38C102.187,364.797,115.617,399.017,144.967,411.517z"/>
		<path style="opacity:0.2;" d="M202.607,408.644c5.642,2.48,15.869-8.374,22.843-24.243c6.974-15.869,8.053-30.743,2.411-33.222
			c-5.642-2.48-15.87,8.374-22.844,24.243C198.043,391.29,196.964,406.165,202.607,408.644z"/>
		<g>
			<path style="fill:#263238;" d="M173.271,393.073c0.086,0,0.171-0.027,0.244-0.081c13.082-9.733,40.054-2.66,40.325-2.588
				c0.22,0.062,0.443-0.071,0.501-0.289c0.058-0.218-0.071-0.442-0.289-0.5c-1.09-0.293-26.139-6.859-39.852,1.911l3.648-8.563
				c0.064-0.15,0.032-0.325-0.081-0.443l-5.442-5.661l15.465-0.677c0.157-0.007,0.296-0.103,0.358-0.248
				c0.062-0.145,0.035-0.313-0.069-0.431l-10.295-11.698l13.958-1.327c0.149-0.015,0.279-0.109,0.337-0.247
				c0.059-0.138,0.038-0.297-0.056-0.414l-8.685-10.949l7.911,0.003c0.164,0,0.312-0.098,0.376-0.249l3.815-8.955
				c1.782,4.214,10.02,21.665,26.822,28.822c0.207,0.087,0.448-0.008,0.536-0.216c0.089-0.208-0.008-0.448-0.216-0.536
				c-18.75-7.987-26.67-29.066-26.749-29.277c-0.058-0.157-0.206-0.264-0.374-0.268c-0.156-0.003-0.321,0.094-0.386,0.249
				l-4.095,9.612l-8.487-0.003c-0.157,0-0.3,0.09-0.368,0.231c-0.068,0.141-0.05,0.309,0.048,0.432l8.743,11.022l-14.006,1.332
				c-0.153,0.015-0.285,0.114-0.342,0.257c-0.056,0.143-0.028,0.305,0.073,0.421l10.26,11.658l-15.516,0.679
				c-0.16,0.007-0.302,0.107-0.361,0.256c-0.06,0.15-0.027,0.32,0.084,0.436l5.882,6.119l-4.095,9.612
				c-0.073,0.17-0.022,0.367,0.123,0.482C173.093,393.043,173.182,393.073,173.271,393.073z"/>
		</g>
		<path style="opacity:0.6;fill:#FFFFFF;" d="M144.967,411.517c16.29,6.94,34,5.7,48.58-1.87c2.8-1.46,6.12-1.55,8.89-0.05
			c0.13,0.08,0.26,0.14,0.4,0.2c6.33,2.69,17.2-8.58,24.27-25.19c7.07-16.6,7.68-32.25,1.35-34.95c-0.14-0.06-0.29-0.11-0.43-0.15
			c-2.98-0.94-5.22-3.36-6.09-6.35c-4.83-16.49-17.03-30.67-34.52-37.31c-3.56-1.35-7.19-2.31-10.83-2.9l-3.57,1.57l10.74,8.3
			l-1.78,1.39l1.78,3.36l-3.55-2.17l-3.97,2.17l7.52,16.23l-15.08,2.56l-1.93,2.97l4.66,6.77l-6.24-5.5l-5.74,6.25l-1.58,19.78
			l-5.13-6.33l-10.1-12.46h-8.31l-1.98,7.51v-7.71l-6.73-1.54l-9.18,13.25l-1.89,2.73l1.4-6.19v-0.02l3.15-13.97l-1.46,0.38
			l-3.09,0.81l2.37-7.12l-1.47-0.38C102.187,364.797,115.617,399.017,144.967,411.517z"/>
		<path style="opacity:0.2;fill:#FFFFFF;" d="M125.597,346.098l-9.18,13.25c1.25,6.16,4.53,11.07,9.56,13.28
			c8.64,3.8,19.67-1.61,26.74-12.33l-10.1-12.46h-8.31l-1.98,7.51v-7.71L125.597,346.098z"/>
		<path style="opacity:0.2;fill:#FFFFFF;" d="M115.927,355.867l3.15-13.97l-1.46,0.38
			C116.147,346.967,115.607,351.628,115.927,355.867z"/>
		<path style="opacity:0.2;fill:#FFFFFF;" d="M134.961,386.547c1.453,2.658,5.737,3.114,9.568,1.02
			c3.831-2.095,5.759-5.947,4.306-8.605c-1.453-2.658-5.736-3.114-9.568-1.02C135.436,380.037,133.508,383.89,134.961,386.547z"/>
		<g style="opacity:0.2;">
			<path style="fill:#FFFFFF;" d="M236.767,358.613c-0.222,4.951-0.934,9.786-1.982,14.514c-0.583,2.35-1.134,4.701-1.939,6.974
				c-0.357,1.15-0.793,2.271-1.193,3.403c-0.453,1.113-0.899,2.225-1.402,3.32c-0.983,2.203-2.029,4.381-3.219,6.479
				c-1.106,2.15-2.447,4.158-3.747,6.2c-2.733,3.988-5.74,7.834-9.364,11.214c2.218-1.144,4.195-2.71,6.077-4.356
				c1.853-1.684,3.596-3.503,5.172-5.46c1.583-1.951,3.023-4.023,4.326-6.173c1.309-2.15,2.432-4.404,3.492-6.684
				c2.043-4.619,3.425-9.529,4.087-14.506c0.361-2.485,0.474-4.998,0.464-7.495C237.485,363.545,237.314,361.043,236.767,358.613z"
				/>
		</g>
		<g style="opacity:0.2;">
			<path style="fill:#FFFFFF;" d="M242.869,361.428c-0.392,4.944-1.276,9.752-2.352,14.497c-0.592,2.361-1.169,4.719-1.898,7.036
				l-1.088,3.472c-0.414,1.136-0.782,2.305-1.234,3.414c-0.449,1.109-0.823,2.251-1.354,3.326l-0.746,1.635l-0.827,1.596
				c-0.512,1.087-1.153,2.102-1.742,3.15c-0.307,0.516-0.651,1.009-0.969,1.52c-0.311,0.517-0.638,1.022-0.99,1.511
				c-1.358,1.992-2.843,3.911-4.455,5.733c-1.594,1.845-3.316,3.586-5.192,5.213c2.252-1.075,4.292-2.561,6.222-4.16
				c1.908-1.628,3.705-3.411,5.292-5.374c3.257-3.869,5.742-8.371,7.568-13.098c1.747-4.713,2.991-9.587,3.704-14.546
				C243.478,371.405,243.721,366.345,242.869,361.428z"/>
		</g>
		<g style="opacity:0.2;">
			<path style="fill:#FFFFFF;" d="M247.975,365.503c-0.002,4.629-0.8,9.111-1.84,13.503c-1.11,4.376-2.49,8.679-4.247,12.835
				c-0.861,2.072-1.777,4.124-2.85,6.094c-0.983,2.023-2.215,3.901-3.401,5.815c-2.514,3.728-5.32,7.31-8.76,10.412
				c2.112-0.994,3.996-2.421,5.782-3.936c1.757-1.552,3.401-3.248,4.874-5.086c0.726-0.924,1.468-1.847,2.103-2.839l0.981-1.472
				l0.914-1.513c1.191-2.037,2.195-4.173,3.127-6.336c1.769-4.342,3.083-8.885,3.758-13.534
				C249.058,374.819,249.207,370.013,247.975,365.503z"/>
		</g>
		<g style="opacity:0.2;">
			<path style="fill:#FFFFFF;" d="M253.514,370.844c-0.412,4.23-1.309,8.3-2.384,12.3c-1.155,3.978-2.487,7.888-4.168,11.659
				c-1.66,3.78-3.526,7.456-5.733,10.937c-2.249,3.443-4.718,6.794-7.957,9.544c2-0.788,3.754-2.1,5.411-3.477
				c1.628-1.42,3.112-3.004,4.461-4.694c2.676-3.396,4.872-7.162,6.563-11.118c1.697-3.957,2.963-8.108,3.685-12.349
				C254.07,379.41,254.335,375.048,253.514,370.844z"/>
		</g>
		<g>
			<polyline style="fill:#407BFF;" points="98.956,416.086 111.953,416.086 105.455,412.604 97.637,416.086 			"/>
			<polygon style="fill:#407BFF;" points="128.758,416.086 134.477,414.345 140.464,414.718 138.78,416.238 			"/>
			<polygon style="fill:#407BFF;" points="116.417,410.716 125.593,409.02 130.341,409.868 128.758,412.604 			"/>
			<polygon style="fill:#407BFF;" points="81.813,412.604 88.407,410.812 95.652,411.597 92.099,414.345 			"/>
			<polygon style="fill:#407BFF;" points="192.055,416.457 198.99,416.457 196.913,414.162 192.055,414.162 			"/>
			<g style="opacity:0.6;">
				<polyline style="fill:#FFFFFF;" points="98.956,416.086 111.953,416.086 105.455,412.604 97.637,416.086 				"/>
				<polygon style="fill:#FFFFFF;" points="128.758,416.086 134.477,414.345 140.464,414.718 138.78,416.238 				"/>
				<polygon style="fill:#FFFFFF;" points="116.417,410.716 125.593,409.02 130.341,409.868 128.758,412.604 				"/>
				<polygon style="fill:#FFFFFF;" points="81.813,412.604 88.407,410.812 95.652,411.597 92.099,414.345 				"/>
				<polygon style="fill:#FFFFFF;" points="192.055,416.457 198.99,416.457 196.913,414.162 192.055,414.162 				"/>
			</g>
		</g>
	</g>
</g>
<g id="Speech_bubble">
	<g>
		<polygon style="fill:#263238;" points="102.608,204.557 87.122,188.598 104.845,201.059 108.049,196.05 95.7,183.324 
			109.833,193.261 120.437,176.682 181.051,182.186 183.978,185.96 196.559,173.753 186.075,188.663 190.04,193.774 
			201.832,182.331 192.005,196.308 219.114,231.256 203.833,251.282 215.943,263.761 201.864,253.862 197.805,259.183 
			207.365,269.034 196.25,261.22 183.141,278.4 153.921,275.83 159.832,296.021 147.008,295.806 161.386,335.066 133.157,288.279 
			146.261,289.247 139.942,274.6 123.337,273.14 111.033,258.644 96.868,272.39 108.571,255.744 104.659,251.134 91.594,263.812 
			102.388,248.459 86.501,229.741 		"/>
		<polygon style="opacity:0.3;fill:#FFFFFF;" points="102.608,204.557 87.122,188.598 104.845,201.059 108.049,196.05 95.7,183.324 
			109.833,193.261 120.437,176.682 181.051,182.186 183.978,185.96 196.559,173.753 186.075,188.663 190.04,193.774 
			201.832,182.331 192.005,196.308 219.114,231.256 203.833,251.282 215.943,263.761 201.864,253.862 197.805,259.183 
			207.365,269.034 196.25,261.22 183.141,278.4 153.921,275.83 159.832,296.021 147.008,295.806 161.386,335.066 133.157,288.279 
			146.261,289.247 139.942,274.6 123.337,273.14 111.033,258.644 96.868,272.39 108.571,255.744 104.659,251.134 91.594,263.812 
			102.388,248.459 86.501,229.741 		"/>
		<g>
			<path style="fill:#FFFFFF;" d="M156.156,242.669c-4.821,3.094-6.754,3.953-10.638,14.01c0,0-2.218,2-3.283-2.314
				c-1.065-4.314,3.846-11.516,4.265-14.53c0.419-3.014-11.036-2.899-13.52-3.968c-2.483-1.069-3.495-5.561,0.202-7.04
				c0,0-6.359-3.748,1.468-7.386c0,0-4.215-4.699,1.842-7.071c0,0-1.461-3.88,5.545-5.394c5.207-1.125,22.839,4.32,25.282,7.908
				l-3.579,19.003C162.317,239.942,159.485,240.533,156.156,242.669z"/>
			<path style="fill:#407BFF;" d="M168.822,215.595l8.125,1.631c0.871,0.175,1.436,1.023,1.261,1.894l-4.26,21.221
				c-0.175,0.871-1.023,1.436-1.894,1.261l-8.125-1.631c-0.871-0.175-1.436-1.023-1.261-1.894l4.26-21.221
				C167.102,215.984,167.95,215.42,168.822,215.595z"/>
			<path style="opacity:0.5;fill:#FFFFFF;" d="M168.822,215.595l8.125,1.631c0.871,0.175,1.436,1.023,1.261,1.894l-4.26,21.221
				c-0.175,0.871-1.023,1.436-1.894,1.261l-8.125-1.631c-0.871-0.175-1.436-1.023-1.261-1.894l4.26-21.221
				C167.102,215.984,167.95,215.42,168.822,215.595z"/>
			<path style="fill:#FFFFFF;" d="M170.951,218.732c0.156-0.779,0.914-1.283,1.693-1.127c0.779,0.156,1.283,0.914,1.127,1.693
				c-0.156,0.779-0.914,1.283-1.693,1.127C171.299,220.269,170.795,219.511,170.951,218.732z"/>
		</g>
	</g>
</g>
</svg>
